<?xml version="1.0" encoding="UTF-8" standalone="no" ?>
<!DOCTYPE svg PUBLIC "-//W3C//DTD SVG 1.1//EN" "http://www.w3.org/Graphics/SVG/1.1/DTD/svg11.dtd">
<svg xmlns="http://www.w3.org/2000/svg" xmlns:xlink="http://www.w3.org/1999/xlink" version="1.1" width="500" height="300" viewBox="0 0 500 300" xml:space="preserve">
<desc>Created with Fabric.js 5.2.4</desc>
<defs>
</defs>
<rect x="0" y="0" width="100%" height="100%" fill="transparent"></rect>
<g transform="matrix(0 0 0 0 0 0)" id="5acb4c77-abb2-4763-b33a-79c997b1ea34"  >
</g>
<g transform="matrix(1 0 0 1 250 150)" id="3ad1562d-e56a-46fe-bd12-ffa18b5f8d0e"  >
<rect style="stroke: none; stroke-width: 1; stroke-dasharray: none; stroke-linecap: butt; stroke-dashoffset: 0; stroke-linejoin: miter; stroke-miterlimit: 4; fill: rgb(0,0,0); fill-rule: nonzero; opacity: 1; visibility: hidden;" vector-effect="non-scaling-stroke"  x="-250" y="-150" rx="0" ry="0" width="500" height="300" />
</g>
<g transform="matrix(2.1 0 0 2.1 298.54 180.27)"  >
<path style="stroke: none; stroke-width: 1; stroke-dasharray: none; stroke-linecap: butt; stroke-dashoffset: 0; stroke-linejoin: miter; stroke-miterlimit: 4; fill: rgb(255,255,255); fill-rule: nonzero; opacity: 1;" vector-effect="non-scaling-stroke"  transform=" translate(-135.43, -46.82)" d="M 53.674 42.936 C 53.71 40.769 53.727 38.849000000000004 53.727 37.175 C 53.727 35.501 53.709999999999994 33.649 53.674 31.617999999999995 C 53.674 31.065999999999995 53.549 30.715999999999994 53.3 30.567999999999994 C 52.79263988684563 30.373023986875907 52.24738825181142 30.296743488373632 51.705999999999996 30.344999999999995 L 51.705999999999996 29.704999999999995 L 54.715999999999994 29.774999999999995 L 59.318999999999996 29.704999999999995 C 61.370568034536554 29.5739251263684 63.397879331201665 30.208127957311092 65.009 31.484999999999992 C 66.40059239224873 32.7719794780339 67.14221520023928 34.61484426859727 67.03 36.507 C 67.09242404660145 38.70457610846543 66.2224116253951 40.82602602071807 64.635 42.346999999999994 C 63.016356966260915 43.89999524548645 60.84001421804 44.73491487524952 58.598000000000006 44.663 L 54.68900000000001 44.592 L 52.534000000000006 44.653999999999996 L 52.534000000000006 44.208999999999996 C 52.857000000000006 44.059 53.157000000000004 43.864999999999995 53.42400000000001 43.629999999999995 C 53.59299483555002 43.43913611824608 53.68245754080687 43.190787648453075 53.67400000000001 42.93599999999999 z M 55.749 43.514 C 56.601 43.688 57.469 43.772000000000006 58.339 43.764 C 60.14070818622286 43.86638027424603 61.899322545294616 43.18836466988876 63.166 41.903000000000006 C 64.39108877723693 40.47076274950876 65.01333992991094 38.61942219446196 64.902 36.73800000000001 C 64.976175255571 35.082634615139256 64.36062581071812 33.47061924544219 63.202 32.28600000000001 C 61.94686663898658 31.13465760311842 60.28071437192975 30.537697812065606 58.57999999999999 30.63000000000001 C 57.62 30.623000000000008 56.664 30.73400000000001 55.73 30.960000000000008 C 55.69699652502628 33.037174590970444 55.679329376860096 35.11456454137881 55.677 37.192000000000085 C 55.677 38.973000000000006 55.701 41.08100000000001 55.749 43.51400000000001 z M 69.995 42.82 L 69.995 37.112 C 69.995 36.56 69.885 36.21 69.665 36.062000000000005 C 69.23596461107195 35.868234874313686 68.76333894212114 35.79130383476914 68.295 35.839000000000006 L 68.295 35.33200000000001 C 68.879 35.272000000000006 69.459 35.17300000000001 70.031 35.03800000000001 C 70.60306391671944 34.88962294365885 71.16518330097246 34.70525580158656 71.71400000000001 34.48600000000001 L 72.052 34.65500000000001 C 71.9711599993937 35.0060161067778 71.92064073233595 35.36333118768961 71.90100000000001 35.723000000000006 C 71.90100000000001 36.11500000000001 71.87700000000001 36.87500000000001 71.82900000000001 38.00300000000001 L 71.82900000000001 42.82000000000001 C 71.82900000000001 43.37200000000001 71.933 43.72200000000001 72.141 43.870000000000005 C 72.589 44.065000000000005 73.08 44.141000000000005 73.566 44.093 L 73.566 44.654 C 72.67632404513837 44.609982327975494 71.7857580521515 44.58630947679538 70.89499999999998 44.583 C 70.13499999999999 44.583000000000006 69.24499999999999 44.607000000000006 68.223 44.654 L 68.223 44.102000000000004 C 68.698 44.149 69.176 44.072 69.613 43.879000000000005 C 69.856 43.71300000000001 69.983 43.36000000000001 69.995 42.819 z M 70.95700000000001 29.758000000000003 C 71.257 29.752000000000002 71.546 29.875000000000004 71.74900000000001 30.096000000000004 C 72.17378119359397 30.569721143049055 72.17378119359397 31.28727885695095 71.74900000000001 31.761000000000003 C 71.54077852454027 31.978231897027175 71.25290842448935 32.10105824829376 70.95200000000001 32.10105824829376 C 70.65109157551068 32.10105824829376 70.36322147545975 31.978231897027175 70.15500000000002 31.761000000000003 C 69.73021880640606 31.28727885695095 69.73021880640606 30.569721143049055 70.15500000000002 30.096000000000004 C 70.35876736049683 29.875019012631764 70.64747161595525 29.751964739813417 70.94800000000002 29.758000000000003 L 70.95700000000002 29.758000000000003 z M 77.09200000000001 42.464 C 77.09400000000001 42.704 77.20900000000002 42.928 77.40300000000002 43.068999999999996 C 77.61900000000001 43.239 77.88700000000001 43.327 78.16000000000003 43.318999999999996 L 82.13200000000002 43.318999999999996 C 82.87667520715564 43.252054140639345 83.6171412900811 43.48615090810119 84.18800000000002 43.968999999999994 C 84.66800000000002 44.541 84.90300000000002 45.28099999999999 84.83800000000002 46.02499999999999 C 84.82322010533032 47.34451238968637 84.15683939484083 48.571326765121235 83.05800000000002 49.30199999999999 C 81.80454643276622 50.21723701103718 80.28124407601251 50.68746158326984 78.73000000000002 50.63799999999999 C 77.6291324190389 50.676958693759545 76.54433191132378 50.365314906843324 75.63200000000002 49.74799999999999 C 74.86400829949223 49.27286799603675 74.38811272904411 48.44183770740441 74.36700000000002 47.53899999999999 C 74.31950410699652 46.97003869550557 74.47386325906156 46.40252098733988 74.80300000000003 45.935999999999986 C 75.41162065249031 45.3937066583181 76.11096096608641 44.9627965812572 76.86900000000003 44.66299999999998 C 76.66485197414296 44.62386426413867 76.465173902801 44.56422886699291 76.27300000000002 44.484999999999985 C 75.77300000000002 44.31499999999998 75.44300000000003 43.83799999999999 75.46300000000002 43.30999999999999 C 75.49900000000002 42.96499999999999 75.66400000000002 42.64699999999999 75.92500000000003 42.41999999999999 C 76.41081490703404 41.96460092593314 76.94538077148015 41.56417956950362 77.51900000000002 41.225999999999985 C 76.91562588132409 41.15689005407792 76.34123270860599 40.92954765118228 75.85400000000001 40.566999999999986 C 75.23021856536654 40.032009969046854 74.89950717783948 39.23124250823695 74.96400000000001 38.411999999999985 C 74.93240160249721 37.33440897505012 75.39053482832661 36.30048391001618 76.21 35.6 C 77.10761422672046 34.846740371971784 78.2541904980463 34.45587020295993 79.425 34.504000000000005 L 79.71 34.504000000000005 C 80.59171358856462 34.46724444206614 81.46019970600769 34.72786071412935 82.17599999999999 35.24400000000001 L 82.35399999999998 35.394000000000005 L 85.42599999999999 35.394000000000005 L 84.79399999999998 36.428000000000004 L 83.01299999999998 36.428000000000004 C 83.10599999999998 36.668000000000006 83.14899999999997 36.926 83.13799999999998 37.185 C 83.11852793274687 38.30508065818777 82.60722874961748 39.359863808506205 81.73999999999998 40.069 C 80.79840637303073 40.87167746270911 79.59282259720386 41.29705188006646 78.35599999999998 41.263000000000005 C 78.03499999999998 41.443000000000005 77.73599999999998 41.662000000000006 77.46599999999998 41.913000000000004 C 77.21599999999998 42.144000000000005 77.09199999999998 42.328 77.09199999999998 42.465 z M 76.02300000000001 47.344 C 76.043 48.06 76.40700000000001 48.724000000000004 77.00300000000001 49.124 C 77.69466369768415 49.63524883401305 78.53831444722731 49.8987355816783 79.39800000000001 49.872 C 80.37191339149066 49.892372722224444 81.3204226380482 49.560341218843206 82.06900000000002 48.937 C 82.77279883012197 48.37961493076767 83.18015007895629 47.528752630213404 83.17300000000002 46.631 C 83.20316301664641 46.128264989536355 83.01894219755225 45.636282762606406 82.66600000000001 45.277 C 82.26323539205261 44.940604102161096 81.74670724956472 44.771649643911424 81.22300000000001 44.805 L 77.77700000000002 44.805 C 77.25241967714673 44.97931703209503 76.79704997774586 45.31629060965168 76.47700000000002 45.767 C 76.16741579748711 46.23324664102228 76.00890096501291 46.783509583708046 76.02300000000002 47.343 z M 78.93500000000002 35.216 C 78.30380106979302 35.1794699022579 77.68739628093635 35.41626843225603 77.24300000000002 35.866 C 76.82091260959324 36.36001217852121 76.6043753734788 36.99709693932068 76.63800000000002 37.646 C 76.59217263329415 38.41870395824113 76.81550790027401 39.183415220494986 77.27000000000002 39.81 C 77.70500000000003 40.34 78.36600000000003 40.63 79.05000000000003 40.594 L 78.94400000000003 40.594 C 79.61187958200729 40.63182135230233 80.26267328234337 40.37442878767502 80.72400000000003 39.89 C 81.17752254653477 39.34492236393717 81.4070064553555 38.647891799762064 81.36600000000003 37.94 C 81.40947857753643 37.21616145855928 81.19474186277301 36.500372409347904 80.76000000000003 35.919999999999995 C 80.33776800780804 35.425329209960545 79.70948786924606 35.1551687503789 79.06000000000003 35.18899999999999 L 78.93500000000003 35.215999999999994 z M 88.07900000000002 42.82 L 88.07900000000002 37.112 C 88.07900000000002 36.56 87.96900000000002 36.21 87.75000000000003 36.062000000000005 C 87.31795317243062 35.866476884721386 86.84163994225905 35.78950742796178 86.37000000000003 35.839000000000006 L 86.37000000000003 35.33200000000001 C 86.97000000000003 35.27000000000001 87.56400000000004 35.16900000000001 88.15000000000003 35.02900000000001 C 88.72240256357256 34.880663260254124 89.28485715077062 34.69629572335785 89.83400000000003 34.47700000000002 L 90.17200000000003 34.64600000000001 C 90.09115999939372 34.9970161067778 90.04064073233597 35.35433118768961 90.02100000000003 35.714000000000006 C 90.02100000000003 36.10600000000001 89.99700000000003 36.86600000000001 89.94900000000003 37.99400000000001 L 89.94900000000003 42.82 C 89.94900000000003 43.372 90.05300000000003 43.722 90.26100000000002 43.87 C 90.70900000000002 44.065 91.20000000000002 44.141 91.68600000000002 44.092999999999996 L 91.68600000000002 44.653999999999996 C 90.79599104494795 44.60996709002007 89.90509145728994 44.58629423421029 89.01399999999998 44.583 C 88.25400000000002 44.583 87.36400000000002 44.607 86.34400000000002 44.653999999999996 L 86.34400000000002 44.102 C 86.81800000000003 44.148999999999994 87.29600000000002 44.071999999999996 87.73200000000003 43.879 C 87.95200000000003 43.713 88.06800000000003 43.36 88.07900000000002 42.818999999999996 z M 89.04100000000003 29.758000000000003 C 89.34100000000002 29.752000000000002 89.63000000000002 29.875000000000004 89.83400000000003 30.096000000000004 C 90.25878119359399 30.569721143049055 90.25878119359399 31.28727885695095 89.83400000000003 31.761000000000003 C 89.6257785245403 31.978231897027175 89.33790842448937 32.10105824829376 89.03700000000003 32.10105824829376 C 88.7360915755107 32.10105824829376 88.44822147545977 31.978231897027175 88.24000000000004 31.761000000000003 C 87.81521880640608 31.28727885695095 87.81521880640608 30.569721143049055 88.24000000000004 30.096000000000004 C 88.44562517612194 29.87289618194655 88.73770601910657 29.74964608840247 89.04100000000004 29.758000000000003 z M 96.05800000000002 44.877 C 95.37183141661899 44.945832425502175 94.68792981559065 44.72631739890092 94.17000000000002 44.271 C 93.74062702898965 43.69278341805934 93.54075864767435 42.97596490967004 93.60900000000001 42.259 L 93.60900000000001 36.364000000000004 L 91.962 36.364000000000004 L 91.962 35.99 L 93.60000000000001 35.42 L 93.60000000000001 32.117000000000004 L 95.38000000000001 31.297000000000004 L 95.67500000000001 31.529000000000003 C 95.60278313668519 31.95616221806412 95.56101127421431 32.38791618856317 95.55000000000001 32.82100000000001 C 95.50549539553869 33.621640308437215 95.47882211946477 34.423172254458095 95.47 35.225000000000016 L 95.47000000000001 35.44700000000001 L 98.39000000000001 35.44700000000001 L 98.21200000000002 36.39100000000001 L 95.47 36.39100000000001 L 95.47 41.823000000000015 C 95.449 42.265000000000015 95.564 42.70300000000002 95.8 43.07800000000002 C 95.988 43.387000000000015 96.328 43.570000000000014 96.69 43.558000000000014 C 96.905 43.56300000000002 97.12 43.527000000000015 97.322 43.45200000000001 C 97.555 43.35200000000001 97.774 43.22000000000001 97.97200000000001 43.06000000000001 L 98.275 43.39000000000001 L 97.277 44.61000000000001 C 97.135 44.71600000000001 96.971 44.78900000000001 96.797 44.82300000000001 C 96.55349328805693 44.87136808659127 96.304948810513 44.88950511603367 96.057 44.87700000000001 z M 103.58200000000002 44.877 C 102.30629913112358 44.914575037102075 101.08081200094017 44.37888305803986 100.24200000000002 43.417 C 99.34821355206091 42.36364481212891 98.88405761630662 41.012236953028896 98.94200000000002 39.63200000000001 C 98.9021841117202 38.24976947963444 99.44119189039591 36.91366815334078 100.42900000000002 35.946000000000005 C 101.42741397131346 34.966938394286096 102.78121174821679 34.436249665739986 104.17900000000002 34.476000000000006 C 105.23106591169915 34.44701950098474 106.24055654154598 34.891929553120875 106.92900000000002 35.68800000000001 C 107.53900000000002 36.39200000000001 107.90300000000002 37.27800000000001 107.96200000000002 38.20800000000001 L 107.96200000000002 39.30300000000001 L 105.84300000000002 39.59700000000001 L 100.81200000000001 39.59700000000001 C 100.81482334724177 40.64231751162463 101.12426949227478 41.66383748253138 101.70200000000001 42.53500000000001 C 102.32051260506283 43.384352794745716 103.32445066281701 43.866032656287956 104.37400000000001 43.81700000000001 C 104.901331665839 43.82762888370051 105.42706355189148 43.75541667342116 105.93200000000002 43.60300000000001 C 106.44439913589346 43.41850756935305 106.9274041985182 43.160837504563695 107.36600000000001 42.83800000000001 L 107.66800000000002 43.06900000000001 L 107.29500000000002 43.83500000000001 C 106.72400000000002 44.187000000000005 106.11000000000001 44.46500000000001 105.46900000000002 44.66300000000001 C 104.85183745464849 44.81528164817577 104.21759032617686 44.88721004536333 103.58200000000002 44.87700000000001 z M 106.19000000000003 38.795 L 106.19000000000003 38.43 C 106.24170382233538 37.58235376738827 106.00677262350379 36.74195520605066 105.52300000000002 36.044 C 105.08586157487449 35.46045434654035 104.39065528506809 35.127980623849496 103.66200000000002 35.153999999999996 C 102.83939438834682 35.117396343177035 102.05211071208967 35.490813005987874 101.56000000000002 36.150999999999996 C 101.04000327714797 36.921793448683516 100.78097967699516 37.839066468439796 100.82100000000001 38.767999999999994 L 103.44800000000001 38.767999999999994 L 106.19000000000001 38.794999999999995 z M 110.61600000000003 42.82 C 110.65700000000002 40.517 110.67800000000003 38.487 110.67800000000003 36.730000000000004 L 110.67800000000003 31.610000000000003 C 110.67800000000003 30.957000000000004 110.60100000000003 30.574 110.44700000000003 30.461000000000002 C 109.97269137184234 30.309035900323185 109.4701573259679 30.266303413429096 108.97700000000003 30.336000000000002 L 108.97700000000003 29.784000000000002 C 109.56200000000003 29.719 110.14300000000003 29.615000000000002 110.71400000000003 29.473000000000003 C 111.2862141378238 29.313883156435388 111.84824677878568 29.120193951588163 112.39700000000003 28.893 L 112.73500000000003 29.063000000000006 C 112.65200000000003 29.609000000000005 112.59500000000003 30.078000000000007 112.56500000000003 30.470000000000006 C 112.53600000000003 30.862000000000005 112.51500000000003 31.509000000000007 112.50300000000003 32.41100000000001 L 112.50300000000003 36.59600000000001 C 113.31700000000002 35.81800000000001 113.88100000000003 35.311000000000014 114.19500000000002 35.07300000000001 C 114.70374482119404 34.67880756240136 115.3325714951655 34.47155250478134 115.97600000000003 34.486000000000004 C 116.92900000000003 34.426 117.86800000000002 34.746 118.58500000000002 35.376000000000005 C 119.24100000000003 36.04900000000001 119.58500000000002 36.96600000000001 119.52900000000002 37.905 L 119.52900000000002 42.838 C 119.52900000000002 43.39 119.62400000000002 43.74 119.81400000000002 43.888 C 120.20600000000002 44.080999999999996 120.64400000000002 44.158 121.07800000000002 44.111 L 121.07800000000002 44.671 L 119.27100000000002 44.521 L 117.54300000000002 44.521 C 117.57609339867042 42.885534256689574 117.59409416505906 41.24979794800613 117.59700000000005 39.61400000000009 L 117.59700000000002 38.554 C 117.63928958419858 37.81851816937195 117.40372817250038 37.09398837278506 116.93700000000003 36.524 C 116.48123656886983 36.02796323013305 115.83004333634199 35.757974125860265 115.15700000000002 35.786 C 114.42899454603169 35.75758719652067 113.72097600751944 36.02779018978962 113.19700000000003 36.534 C 112.68704433083731 37.062031479188626 112.41688559416014 37.77666824448194 112.45000000000003 38.51 L 112.45000000000003 42.802 C 112.45000000000003 43.354 112.55400000000003 43.704 112.76200000000003 43.852 C 113.21000000000002 44.047 113.70000000000003 44.123999999999995 114.18600000000004 44.074999999999996 L 114.18600000000004 44.635999999999996 C 113.29664942030688 44.59233105102577 112.40641702638996 44.568991624968035 111.516 44.566 C 110.75600000000003 44.565999999999995 109.86500000000004 44.589 108.84400000000004 44.635999999999996 L 108.84400000000004 44.083999999999996 C 109.31300000000003 44.132 109.78600000000003 44.05499999999999 110.21500000000003 43.861999999999995 C 110.45800000000003 43.706999999999994 110.59200000000003 43.35999999999999 110.61500000000004 42.81999999999999 z M 123.58000000000003 42.82 L 123.58000000000003 37.112 C 123.58000000000003 36.56 123.47300000000003 36.21 123.26000000000003 36.062000000000005 C 122.8303620960138 35.867884370629874 122.35699934730997 35.79094567313646 121.88800000000003 35.839000000000006 L 121.88800000000003 35.33200000000001 C 122.4519138829696 35.27131277423333 123.0111541404983 35.173094951226496 123.56200000000004 35.03800000000001 C 124.11806700215804 34.88427505714616 124.6652314438445 34.699995147560486 125.20100000000004 34.48600000000001 L 125.53900000000003 34.65500000000001 C 125.46464109105956 35.000567224807256 125.4198128159632 35.351833559517566 125.40500000000003 35.705000000000005 L 125.40500000000003 36.595000000000006 C 125.94604421431993 36.04458263343381 126.520106794838 35.52762575464267 127.12400000000002 35.04700000000001 C 127.63658265678 34.660694218937785 128.2621678277732 34.45404024110408 128.90400000000002 34.459 C 129.87797677843247 34.38535875353722 130.8407144708873 34.706031113673745 131.57600000000002 35.349000000000004 C 132.23679205609795 36.0267874325207 132.58257157786474 36.950922208953024 132.52900000000002 37.896 L 132.52900000000002 42.784 C 132.52900000000002 43.336 132.62400000000002 43.687 132.81400000000002 43.833999999999996 C 133.20600000000002 44.026999999999994 133.64400000000003 44.104 134.07800000000003 44.05799999999999 L 134.07800000000003 44.617999999999995 L 132.36000000000004 44.520999999999994 L 130.63200000000003 44.520999999999994 C 130.66509339867045 42.88553425668957 130.68309416505903 41.24979794800612 130.686 39.61400000000008 L 130.68600000000004 38.54599999999999 C 130.7182903478396 37.80444911082949 130.4737916434708 37.07736841562202 130.00000000000003 36.50599999999999 C 129.53658140584818 36.02396292382371 128.88798948815472 35.76489053422818 128.22000000000003 35.794999999999995 C 127.47811538385642 35.76050557119748 126.75429323273235 36.030313528727255 126.21600000000002 36.541999999999994 C 125.69884702263997 37.067096889002585 125.42164356806273 37.782542358583754 125.45000000000002 38.51899999999999 L 125.45000000000002 42.81999999999999 C 125.45000000000002 43.37199999999999 125.55400000000002 43.721999999999994 125.76200000000001 43.86999999999999 C 126.21000000000001 44.06499999999999 126.70000000000002 44.14199999999999 127.18600000000002 44.09299999999999 L 127.18600000000002 44.65399999999999 C 126.29665704542677 44.60999756022402 125.40642464691537 44.586324713671864 124.516 44.583000000000006 C 123.75600000000001 44.58299999999999 122.86500000000002 44.60699999999999 121.84400000000002 44.65399999999999 L 121.84400000000002 44.10199999999999 C 122.3184895888152 44.14889217338772 122.7970345543773 44.07206314003974 123.23300000000002 43.87899999999999 C 123.45800000000001 43.712999999999994 123.57400000000001 43.35999999999999 123.58000000000001 42.81899999999999 z M 136.02800000000002 43.416 C 135.09189285195794 42.3830411148249 134.59665230965874 41.02507719304217 134.64800000000002 39.632 C 134.59820512450787 38.24183579624075 135.13446626173152 36.89465203270127 136.12600000000003 35.919 C 137.14620102622166 34.943990483546614 138.517815420883 34.42377271471397 139.92800000000003 34.477 C 141.24929990170352 34.42863827098136 142.53400862414648 34.91662560996657 143.49000000000004 35.83 C 144.41818870915566 36.748913050299144 144.91873802072985 38.0147950049324 144.87000000000003 39.32 C 144.9278769642509 40.79876531194459 144.39626691105337 42.240011241012645 143.39200000000002 43.327 C 142.3991865923565 44.36657197306948 141.0084843254696 44.93086215989533 139.57200000000003 44.876999999999995 C 138.2362904766677 44.919239455374694 136.94635962887432 44.38783453500834 136.02800000000002 43.416999999999994 z M 142.181 43.096 C 142.751 42.209999999999994 143.026 41.166 142.964 40.113 C 143.04439434053174 38.842456324358594 142.73380439337754 37.57776197774427 142.074 36.489 C 141.51015733012798 35.645450504393395 140.5500242350948 35.15365656288705 139.536 35.189 C 138.69921937404897 35.14810435869525 137.8940022487822 35.51292765169637 137.373 36.169 C 136.81325115072036 36.96284839592799 136.53996974497102 37.923388459490816 136.59799999999998 38.893 C 136.5162362157621 40.24270887956474 136.8252364185709 41.587380548641704 137.48799999999997 42.766 C 138.0175256295689 43.65414061601702 138.9842693619997 44.18833339781081 140.01799999999997 44.164 C 140.87291759007766 44.195295992693225 141.68607593247756 43.793792012257214 142.18099999999998 43.096000000000004 z M 147.327 42.81999999999999 C 147.369 40.516999999999996 147.39 38.486999999999995 147.39 36.72999999999999 L 147.39 31.60999999999999 C 147.39 30.95699999999999 147.30999999999997 30.573999999999987 147.14999999999998 30.460999999999988 C 146.672682781129 30.30859286443005 146.16712572269574 30.265864918315 145.67099999999996 30.335999999999988 L 145.67099999999996 29.78399999999999 C 146.25527198362843 29.712311021084204 146.8351506949474 29.608487026138782 147.40799999999996 29.472999999999985 C 147.9798688561882 29.313823558155573 148.54156518734825 29.120135168100383 149.08999999999995 28.89299999999999 L 149.42899999999995 29.06299999999999 C 149.34599999999995 29.60899999999999 149.28899999999996 30.077999999999992 149.25899999999996 30.46999999999999 C 149.22899999999996 30.86199999999999 149.20899999999995 31.508999999999993 149.19699999999995 32.410999999999994 L 149.19699999999995 36.74699999999999 C 149.19699999999995 38.52799999999999 149.21799999999993 40.55799999999999 149.25999999999993 42.83699999999999 C 149.25999999999993 43.389999999999986 149.37199999999993 43.73999999999999 149.59799999999993 43.88799999999999 C 150.03999999999994 44.081999999999994 150.52499999999992 44.15899999999999 151.00499999999994 44.11099999999999 L 151.00499999999994 44.67099999999999 C 150.11531641716778 44.62731581874475 149.22475042877707 44.60397638812426 148.3339999999999 44.601000000000006 C 147.57399999999996 44.60099999999999 146.68399999999994 44.623999999999995 145.66199999999995 44.67099999999999 L 145.66199999999995 44.11999999999999 C 146.12799999999996 44.16599999999999 146.59799999999996 44.08999999999999 147.02499999999995 43.89699999999999 C 147.20899999999995 43.718999999999994 147.30999999999995 43.35999999999999 147.32699999999994 42.81999999999999 z M 153.017 43.41599999999999 C 152.0808928519579 42.38304111482489 151.5856523096587 41.025077193042165 151.637 39.63199999999999 C 151.59403360599032 38.23331109429796 152.1438906203932 36.88154900208693 153.151 35.90999999999999 C 154.17120102622164 34.934990483546606 155.542815420883 34.41477271471396 156.953 34.46799999999999 C 158.27395751557572 34.419911143760416 159.55825372459665 34.90787878509862 160.514 35.82099999999999 C 161.44218870915563 36.73991305029914 161.94273802072982 38.005795004932395 161.894 39.31099999999999 C 161.95187696425089 40.789765311944585 161.42026691105335 42.23101124101264 160.416 43.31799999999999 C 159.42318659235647 44.357571973069476 158.03248432546957 44.92186215989532 156.596 44.86799999999999 C 155.24948430221312 44.92246407810362 153.94496179470153 44.39321940615425 153.017 43.41599999999999 z M 159.17 43.09599999999999 C 159.73999999999998 42.20999999999999 160.015 41.16599999999999 159.95299999999997 40.11299999999999 C 160.03339434053171 38.84245632435859 159.72280439337752 37.57776197774426 159.063 36.48899999999999 C 158.49915733012796 35.64545050439339 157.5390242350948 35.15365656288704 156.52499999999998 35.18899999999999 C 155.68821937404894 35.14810435869524 154.88300224878216 35.512927651696366 154.36199999999997 36.16899999999999 C 153.80225115072034 36.962848395927985 153.528969744971 37.9233884594908 153.58699999999996 38.89299999999999 C 153.50523621576207 40.242708879564724 153.81423641857089 41.58738054864169 154.47699999999995 42.765999999999984 C 155.00652562956887 43.654140616017 155.97326936199968 44.188333397810794 157.00699999999995 44.16399999999999 C 157.85877360681062 44.19222796250445 158.6678527216936 43.791068958467754 159.16099999999994 43.09599999999999 L 159.16999999999993 43.09599999999999 z M 164.726 43.41599999999999 C 163.78989285195792 42.38304111482489 163.29465230965872 41.025077193042165 163.346 39.63199999999999 C 163.29620512450785 38.24183579624074 163.8324662617315 36.894652032701266 164.824 35.91899999999999 C 165.84420102622164 34.94399048354661 167.215815420883 34.42377271471396 168.626 34.47699999999999 C 169.9472999017035 34.42863827098135 171.23200862414646 34.916625609966566 172.18800000000002 35.82999999999999 C 173.11618870915564 36.74891305029914 173.61673802072983 38.014795004932395 173.568 39.31999999999999 C 173.6258769642509 40.798765311944585 173.09426691105335 42.24001124101264 172.09 43.32699999999999 C 171.10141007427166 44.361794435529056 169.71829418052533 44.92566335591486 168.288 44.87699999999999 C 166.94609322691923 44.92445193202682 165.6485680719739 44.392619611358604 164.726 43.41699999999999 z M 170.879 43.09599999999999 C 171.44899999999998 42.20999999999999 171.724 41.16599999999999 171.66199999999998 40.11299999999999 C 171.74239434053172 38.84245632435859 171.43180439337752 37.57776197774426 170.772 36.48899999999999 C 170.20815733012796 35.64545050439339 169.2480242350948 35.15365656288704 168.23399999999998 35.18899999999999 C 167.39721937404894 35.14810435869524 166.59200224878217 35.512927651696366 166.07099999999997 36.16899999999999 C 165.51125115072034 36.962848395927985 165.237969744971 37.9233884594908 165.29599999999996 38.89299999999999 C 165.21423621576207 40.242708879564724 165.5232364185709 41.58738054864169 166.18599999999995 42.765999999999984 C 166.71552562956887 43.654140616017 167.6822693619997 44.188333397810794 168.71599999999995 44.16399999999999 C 169.5646261600457 44.18917557914564 170.3696360454348 43.788359468378495 170.86099999999996 43.09599999999999 L 170.87899999999996 43.09599999999999 z M 177.539 42.46399999999999 C 177.541 42.70399999999999 177.65699999999998 42.92799999999999 177.851 43.06899999999999 C 178.066 43.23899999999999 178.334 43.32699999999999 178.608 43.31899999999999 L 182.578 43.31899999999999 C 183.3233454430436 43.25150622690631 184.06463768310752 43.4856364290645 184.636 43.96899999999999 C 185.11599999999999 44.54099999999999 185.35 45.280999999999985 185.286 46.024999999999984 C 185.27099637203557 47.34470097850804 184.6042201197525 48.57155430738592 183.505 49.301999999999985 C 182.2515464327662 50.21723701103717 180.7282440760125 50.68746158326983 179.177 50.637999999999984 C 178.07613241903886 50.676958693759545 176.99133191132373 50.365314906843324 176.07899999999998 49.74799999999998 C 175.3110082994922 49.272867996036744 174.83511272904408 48.4418377074044 174.814 47.53899999999998 C 174.76679387408498 46.96991816342348 174.92151010614785 46.402389284712314 175.251 45.93599999999998 C 175.8593203203221 45.39380618096678 176.55831453359255 44.96290078944459 177.316 44.662999999999975 C 177.11185197414295 44.62386426413866 176.912173902801 44.564228866992906 176.72 44.48499999999998 C 176.22 44.314999999999976 175.89 43.83799999999998 175.91 43.30999999999998 C 175.946 42.96499999999998 176.111 42.646999999999984 176.373 42.41999999999998 C 176.85850164190242 41.96466039573697 177.3927295335914 41.56424099669326 177.96599999999998 41.225999999999985 C 177.36262588132405 41.156890054077905 176.78823270860596 40.929547651182276 176.301 40.56699999999998 C 175.6772185653665 40.03200996904685 175.34650717783947 39.231242508236946 175.411 38.41199999999998 C 175.37934358964466 37.333897705339204 175.83788525454375 36.29951301940406 176.65800000000002 35.598999999999975 C 177.54922206521007 34.83873627719315 178.6921866637964 34.438609512883055 179.86300000000003 34.476999999999975 L 180.14800000000002 34.476999999999975 C 181.02959719228386 34.439954815322565 181.8980723343192 34.70021561417257 182.61400000000003 35.21599999999997 L 182.79200000000003 35.366999999999976 L 185.86400000000003 35.366999999999976 L 185.20500000000004 36.38199999999998 L 183.42500000000004 36.38199999999998 C 183.51800000000003 36.622999999999976 183.56100000000004 36.88099999999998 183.54900000000004 37.138999999999974 C 183.55197688407122 38.26932016571354 183.0530468816826 39.342642417548056 182.18700000000004 40.068999999999974 C 181.22994327780833 40.8719489651235 180.0071544552187 41.28786838377562 178.75900000000004 41.23499999999997 L 178.81200000000004 41.23499999999997 C 178.49100000000004 41.41499999999997 178.19200000000004 41.63399999999997 177.92200000000005 41.88499999999997 C 177.66700000000006 42.13499999999997 177.53900000000004 42.32699999999997 177.53900000000004 42.46399999999997 z M 176.47099999999998 47.343999999999994 C 176.48999999999998 48.059999999999995 176.85499999999996 48.724 177.45 49.123999999999995 C 178.14771399556537 49.635932368863365 178.99826731810774 49.89642093304025 179.863 49.86299999999999 C 180.83122084871638 49.89601126616424 181.77909366452025 49.58017195277396 182.534 48.97299999999999 C 183.2380771770211 48.41539854597136 183.64545933735909 47.56410267287377 183.638 46.66599999999999 C 183.66787510399737 46.16360536882709 183.48367585194833 45.67204405122871 183.131 45.31299999999999 C 182.7282353920526 44.97660410216108 182.2117072495647 44.807649643911404 181.688 44.84099999999999 L 178.207 44.84099999999999 C 177.6824196771467 45.01531703209501 177.22704997774582 45.35229060965167 176.90699999999998 45.80299999999999 C 176.6107912010926 46.261117522784545 176.45890495802203 46.79759645473102 176.47099999999998 47.34299999999999 z M 179.38199999999998 35.215999999999994 C 178.75080106979297 35.17946990225789 178.1343962809363 35.41626843225602 177.68999999999997 35.86599999999999 C 177.26791260959317 36.3600121785212 177.05137537347875 36.99709693932067 177.08499999999998 37.645999999999994 C 177.0391726332941 38.418703958241124 177.262507900274 39.18341522049498 177.71699999999998 39.809999999999995 C 178.152 40.339999999999996 178.813 40.629999999999995 179.49699999999999 40.593999999999994 L 179.391 40.593999999999994 C 180.05887958200725 40.631821352302325 180.70967328234332 40.374428787675015 181.171 39.88999999999999 C 181.62452254653473 39.344922363937165 181.85400645535546 38.647891799762064 181.813 37.93999999999999 C 181.8567648846099 37.21628405877732 181.64238620842798 36.50050732177319 181.208 35.91999999999999 C 180.78554983904675 35.42504206405294 180.1568318466102 35.15485226248261 179.507 35.188999999999986 L 179.382 35.21599999999999 z M 188.51799999999997 42.81999999999999 L 188.51799999999997 37.111999999999995 C 188.51799999999997 36.559999999999995 188.40799999999996 36.209999999999994 188.18799999999996 36.062 C 187.75896461107192 35.86823487431368 187.2863389421211 35.79130383476913 186.81799999999996 35.839 L 186.81799999999996 35.332 C 187.40199999999996 35.272 187.98199999999994 35.173 188.55299999999997 35.038000000000004 C 189.1250639167194 34.88962294365884 189.6871833009724 34.70525580158655 190.23599999999996 34.486000000000004 L 190.57499999999996 34.655 C 190.4938233070556 35.00598671438629 190.44296942639002 35.36330213906292 190.42299999999997 35.723 C 190.42299999999997 36.115 190.39999999999998 36.875 190.35299999999998 38.003 L 190.35299999999998 42.82 C 190.35299999999998 43.372 190.456 43.722 190.66299999999998 43.87 C 191.112 44.065 191.60299999999998 44.141 192.088 44.092999999999996 L 192.088 44.653999999999996 C 191.19865704542673 44.60999756022403 190.30842464691534 44.58632471367185 189.41799999999998 44.58299999999999 C 188.65800000000002 44.583 187.767 44.607 186.746 44.653999999999996 L 186.746 44.102 C 187.22 44.148999999999994 187.699 44.071999999999996 188.13500000000002 43.879 C 188.38500000000002 43.713 188.51200000000003 43.36 188.51800000000003 42.818999999999996 z M 189.47899999999998 29.757999999999996 C 189.779 29.751999999999995 190.069 29.874999999999996 190.272 30.095999999999997 C 190.69678119359395 30.569721143049048 190.69678119359395 31.287278856950945 190.272 31.760999999999996 C 190.06377852454025 31.978231897027168 189.77590842448933 32.101058248293754 189.475 32.101058248293754 C 189.17409157551066 32.101058248293754 188.88622147545973 31.978231897027168 188.678 31.760999999999996 C 188.25321880640604 31.287278856950945 188.25321880640604 30.569721143049048 188.678 30.095999999999997 C 188.88362517612188 29.872896181946548 189.1757060191065 29.74964608840247 189.47899999999998 29.757999999999996 z M 196.02399999999997 44.876999999999995 C 195.28908829279735 44.91492610850976 194.56609334230023 44.67986371081119 193.99399999999997 44.217 C 193.49018047873074 43.7659816257534 193.21557944052543 43.112519262109714 193.24599999999998 42.437 C 193.20246867265368 41.65750818891877 193.44976791990356 40.88959770214144 193.93999999999997 40.282 C 194.52024718922658 39.695857674230545 195.27173872532634 39.30925625025378 196.08599999999996 39.178 L 199.52299999999997 38.421 C 199.55625434873394 37.6730619210588 199.31594261308933 36.93861806626328 198.84699999999998 36.355 C 198.35604474428374 35.838794395133036 197.660771208389 35.56794192121305 196.95 35.616 C 196.64999999999998 35.627 196.35 35.672 196.06 35.75 C 195.793 35.8 195.536 35.896 195.303 36.035 L 194.671 37.558 L 194.09099999999998 37.424 L 194.09099999999998 35.937 C 194.71099999999998 35.5 195.37399999999997 35.126999999999995 196.06799999999998 34.824 C 196.57608720068615 34.611767449447385 197.1203979518654 34.499713458250156 197.671 34.494 C 198.6774260108046 34.397214263193256 199.6792983648854 34.719115488872646 200.441 35.384 C 201.098 36.192 201.417 37.224000000000004 201.331 38.261 L 201.331 42.793000000000006 C 201.28307205582004 43.16422851119059 201.37856392633572 43.53975833906124 201.59799999999998 43.843 C 201.96099999999998 44.036 202.374 44.11300000000001 202.78199999999998 44.066 L 202.78199999999998 44.627 L 201.14399999999998 44.521 L 199.46099999999998 44.521 L 199.46099999999998 42.838 L 197.08399999999997 44.618 C 196.74599999999998 44.758 196.38799999999998 44.846000000000004 196.02399999999997 44.877 z M 199.52399999999997 39.53399999999999 L 199.52399999999997 39.026999999999994 L 196.85199999999998 39.77499999999999 C 196.35006845903794 39.88964338741446 195.8959427378539 40.15687890795736 195.55199999999996 40.53999999999999 C 195.25399999999996 40.92699999999999 195.10199999999998 41.40599999999999 195.12499999999997 41.89399999999999 C 195.09799999999998 42.36399999999999 195.25799999999998 42.82399999999999 195.56999999999996 43.17599999999999 C 195.89289390574174 43.48862795690534 196.33115179664577 43.65306521514537 196.77999999999997 43.62999999999999 C 197.34932302372772 43.609338978702134 197.89907378304306 43.416908782670376 198.35699999999997 43.07799999999999 C 198.79368693544345 42.761060543916024 199.1884924531076 42.39011135965965 199.53199999999998 41.97399999999999 C 199.53799999999998 41.07799999999999 199.53499999999997 40.26099999999999 199.523 39.52499999999999 L 199.523 39.53499999999999 z M 207.21599999999998 44.876999999999995 C 206.53016579609923 44.945547278354915 205.8466835368101 44.72605059095205 205.32899999999998 44.270999999999994 C 204.8996270289896 43.692783418059335 204.69975864767432 42.97596490967003 204.76799999999997 42.25899999999999 L 204.76799999999997 36.36399999999999 L 203.12099999999998 36.36399999999999 L 203.12099999999998 35.98999999999999 L 204.759 35.41999999999999 L 204.759 32.11699999999999 L 206.539 31.29699999999999 L 206.83399999999997 31.52899999999999 C 206.76178313668515 31.956162218064105 206.72001127421427 32.38791618856315 206.70899999999997 32.821 C 206.66449572573862 33.62164032310682 206.63782244990946 34.423172261773324 206.62899999999996 35.225000000000016 L 206.62899999999996 35.446999999999996 L 209.54899999999995 35.446999999999996 L 209.37099999999995 36.391 L 206.62899999999996 36.391 L 206.62899999999996 41.823 C 206.60799999999998 42.265 206.72299999999996 42.703 206.95899999999997 43.078 C 207.14699999999996 43.387 207.48699999999997 43.57 207.84899999999996 43.558 C 208.06399999999996 43.563 208.27899999999997 43.527 208.48099999999997 43.452 C 208.71399999999997 43.352 208.93299999999996 43.22 209.13099999999997 43.059999999999995 L 209.43399999999997 43.38999999999999 L 208.35599999999997 44.59199999999999 C 208.21399999999997 44.69799999999999 208.04999999999995 44.770999999999994 207.87599999999998 44.80499999999999 C 207.65931732376262 44.8531989874862 207.43797838974658 44.87734505301522 207.21599999999998 44.876999999999995 z M 214.73199999999997 44.876999999999995 C 213.45629913112353 44.91457503710207 212.23081200094012 44.378883058039854 211.39199999999997 43.416999999999994 C 210.5144020266407 42.35703261040684 210.06654226314424 41.006316112531 210.13699999999997 39.63199999999999 C 210.09718411172014 38.24976947963442 210.63619189039585 36.913668153340765 211.62399999999997 35.94599999999999 C 212.62399999999997 34.965999999999994 213.98099999999997 34.43499999999999 215.38199999999998 34.47599999999999 C 216.4391696720863 34.439001975672355 217.45658794386136 34.88102226492674 218.15099999999998 35.678999999999995 C 218.761 36.382999999999996 219.124 37.269 219.18399999999997 38.199 L 219.18399999999997 39.294 L 217.06399999999996 39.587999999999994 L 212.034 39.587999999999994 C 212.03682334724175 40.63331751162461 212.34626949227476 41.65483748253136 212.92399999999998 42.525999999999996 C 213.54231404403785 43.37504831814303 214.54579814815793 43.85669063243803 215.59499999999997 43.80799999999999 C 216.1264352533711 43.832214196020516 216.65835316270307 43.772137173266024 217.17099999999996 43.629999999999995 C 217.68345672653192 43.44519701765262 218.16646472052844 43.187188563397854 218.60499999999996 42.864 L 218.90799999999996 43.096 L 218.53399999999996 43.861999999999995 C 217.96299999999997 44.21399999999999 217.34899999999996 44.492 216.70799999999997 44.69 C 216.0607547276739 44.841002076119 215.39608151063422 44.90390384311617 214.73199999999997 44.876999999999995 z M 217.33999999999997 38.794999999999995 L 217.33999999999997 38.42999999999999 C 217.39170382233533 37.58235376738826 217.15677262350374 36.741955206050655 216.67299999999997 36.04399999999999 C 216.23586157487443 35.460454346540345 215.54065528506806 35.12798062384949 214.81199999999998 35.15399999999999 C 213.9893943883468 35.11739634317703 213.20211071208962 35.49081300598787 212.70999999999998 36.15099999999999 C 212.19000327714792 36.92179344868351 211.93097967699512 37.83906646843979 211.97099999999998 38.76799999999999 L 214.59799999999998 38.76799999999999 L 217.33999999999997 38.79499999999999 z M 53.425 62.667 L 53.425 56.96 C 53.425 56.408 53.315 56.057 53.095 55.909 C 52.665663339371896 55.71505969082987 52.19266915750235 55.63812482390287 51.724 55.686 L 51.724 55.206 C 52.309 55.146 52.888 55.047000000000004 53.459999999999994 54.912000000000006 C 54.03999999999999 54.74900000000001 54.60699999999999 54.550000000000004 55.160999999999994 54.315000000000005 L 55.498999999999995 54.48500000000001 C 55.418159999393694 54.8360161067778 55.367640732335936 55.19333118768961 55.34799999999999 55.553000000000004 C 55.34799999999999 55.94500000000001 55.32399999999999 56.70400000000001 55.276999999999994 57.833000000000006 L 55.276999999999994 62.65800000000001 C 55.276999999999994 63.21000000000001 55.38099999999999 63.56100000000001 55.587999999999994 63.708000000000006 C 56.03699999999999 63.903000000000006 56.526999999999994 63.979000000000006 57.01299999999999 63.932 L 57.01299999999999 64.492 C 56.12331641716783 64.44831581874476 55.23275042877719 64.42497638812428 54.342 64.42200000000003 C 53.581999999999994 64.42200000000001 52.69199999999999 64.44500000000001 51.67099999999999 64.492 L 51.67099999999999 63.940000000000005 C 52.14499999999999 63.98800000000001 52.623999999999995 63.911 53.059999999999995 63.718 C 53.303 63.569 53.425 63.219 53.425 62.668000000000006 z M 54.385999999999996 49.605000000000004 C 54.68599999999999 49.599000000000004 54.976 49.722 55.178999999999995 49.943000000000005 C 55.632999999999996 50.415000000000006 55.644999999999996 51.15800000000001 55.205 51.64300000000001 C 54.99681012406997 51.85991465252826 54.70915759747795 51.98253695314948 54.4085 51.98253695314948 C 54.107842402522046 51.98253695314948 53.820189875930026 51.85991465252826 53.611999999999995 51.64300000000001 C 53.187816276292175 51.169432416022026 53.187816276292175 50.45256758397799 53.611999999999995 49.979000000000006 C 53.80687014742488 49.74727287177559 54.09228478954485 49.610944549741276 54.394999999999996 49.605000000000004 L 54.385999999999996 49.605000000000004 z M 59.763999999999996 62.667 L 59.763999999999996 56.96 C 59.763999999999996 56.408 59.657999999999994 56.057 59.443999999999996 55.909 C 59.01466333937189 55.71505969082987 58.54166915750235 55.63812482390287 58.07299999999999 55.686 L 58.07299999999999 55.206 C 58.636913882969566 55.145312774233325 59.196154140498265 55.04709495122649 59.746999999999986 54.912000000000006 C 60.32099999999999 54.745000000000005 60.88699999999999 54.54600000000001 61.437999999999995 54.315000000000005 L 61.776999999999994 54.48500000000001 C 61.702641091059526 54.830567224807254 61.65781281596316 55.181833559517564 61.642999999999994 55.535000000000004 L 61.642999999999994 56.425000000000004 C 62.184014491422644 55.87423977163994 62.75807768804245 55.35694838620418 63.36199999999999 54.87600000000001 C 63.874582656779985 54.489694218937785 64.50016782777315 54.28304024110408 65.142 54.288000000000004 C 66.11597677843243 54.21435875353722 67.07871447088726 54.535031113673746 67.814 55.178000000000004 C 68.47442715867346 55.85595702957926 68.81983594409265 56.78007066031735 68.76599999999999 57.725 L 68.76599999999999 62.614000000000004 C 68.76599999999999 63.166000000000004 68.86099999999999 63.516000000000005 69.05099999999999 63.664 C 69.44299999999998 63.857 69.88099999999999 63.934000000000005 70.31599999999999 63.887 L 70.31599999999999 64.447 L 68.56199999999998 64.395 L 66.83399999999999 64.395 C 66.86999999999999 62.501 66.88799999999999 60.864999999999995 66.88799999999999 59.488 L 66.88799999999999 58.42 C 66.93188869960025 57.67198322890623 66.69351118070983 56.93472581269728 66.21999999999998 56.354 C 65.75083557974217 55.84359718418876 65.07830021008922 55.56930249689301 64.38599999999998 55.606 C 63.64397091998999 55.571772756315625 62.92012893189704 55.84194930676149 62.381999999999984 56.354 C 61.86484702263993 56.87909688900259 61.5876435680627 57.594542358583766 61.615999999999985 58.330999999999996 L 61.615999999999985 62.623 C 61.615999999999985 63.175 61.719999999999985 63.525 61.92799999999998 63.672999999999995 C 62.37599999999998 63.867999999999995 62.86699999999998 63.94499999999999 63.35299999999998 63.895999999999994 L 63.35299999999998 64.45599999999999 C 62.46331641716782 64.41231581874474 61.57275042877718 64.38897638812426 60.68199999999999 64.386 C 59.92199999999998 64.386 59.03199999999998 64.40899999999999 58.009999999999984 64.45599999999999 L 58.009999999999984 63.90499999999999 C 58.484820012254126 63.95206751121128 58.96373209374444 63.87523485353334 59.399999999999984 63.68199999999999 C 59.636999999999986 63.557999999999986 59.75799999999998 63.21899999999999 59.76399999999998 62.66699999999999 z M 77.50999999999999 57.405 L 77.466 56.799 C 77.45094015420118 56.638518948983304 77.4180712819262 56.48021172741397 77.368 56.327 C 77.33263012255817 56.201050336221755 77.27870566230347 56.08106841215503 77.208 55.971 C 77.02641651166854 55.74059803207742 76.802379661832 55.54711166176405 76.548 55.400999999999996 C 76.1325519318892 55.158140620399976 75.65920891770466 55.03203098523402 75.178 55.035999999999994 C 74.60624075708192 55.000539900953434 74.04070930629297 55.171192741498906 73.584 55.516999999999996 C 73.1972828082396 55.84997768323352 72.9867617160951 56.34340957640029 73.01400000000001 56.852999999999994 C 73.007 57.26299999999999 73.20800000000001 57.647999999999996 73.54800000000002 57.876999999999995 C 74.17700000000002 58.20399999999999 74.85800000000002 58.416999999999994 75.56000000000002 58.50899999999999 C 76.49133037524118 58.62788784885064 77.38511233449233 58.95016828029949 78.17800000000001 59.452999999999996 C 78.686 59.867 78.96400000000001 60.498999999999995 78.92600000000002 61.153 C 78.95040483444737 62.146059278166305 78.50122257640358 63.09156937009815 77.71600000000002 63.699999999999996 C 76.824290485328 64.38250649073125 75.72083638212061 64.72943784175571 74.59900000000002 64.67999999999999 C 74.09557511373592 64.68550567704636 73.59245974696866 64.65274467641966 73.09400000000002 64.582 C 72.50900000000003 64.481 71.92900000000002 64.35 71.35800000000002 64.19 C 71.41808832701058 63.7010819426601 71.4680989352352 63.21097798205883 71.50800000000002 62.719999999999985 C 71.53800000000003 62.335 71.53800000000003 61.848 71.50800000000002 61.26 L 72.12300000000002 61.26 L 72.17700000000002 62.418 C 72.18905117461031 62.57948460363846 72.24093058199273 62.73546639802001 72.32800000000002 62.872 C 72.40900000000002 63.017 72.52200000000002 63.142 72.65800000000002 63.237 C 72.93800000000002 63.425000000000004 73.23600000000002 63.583 73.54800000000002 63.709 C 73.97500000000002 63.869 74.42800000000001 63.947 74.88400000000001 63.940000000000005 C 75.54700000000001 63.980000000000004 76.20300000000002 63.785000000000004 76.73600000000002 63.388000000000005 C 77.18600000000002 63.00300000000001 77.43300000000002 62.431000000000004 77.40300000000002 61.839000000000006 C 77.41300000000003 61.373000000000005 77.16300000000003 60.940000000000005 76.75300000000001 60.717000000000006 C 75.99315522066931 60.3553966106284 75.18243131750987 60.11224688759264 74.34900000000002 59.99600000000001 C 73.52374789792471 59.90585272072117 72.73708481021615 59.598778094378794 72.06900000000002 59.10600000000001 C 71.604989794212 58.634255369051786 71.36793598222887 57.984727924218 71.41900000000001 57.32500000000001 C 71.43706184106381 56.48051785355388 71.8535107572166 55.69434536713901 72.54200000000002 55.20500000000001 C 73.36549102645743 54.597474545534666 74.36912794170841 54.284058105333486 75.39200000000001 54.31500000000001 C 75.92200000000001 54.32700000000001 76.45200000000001 54.39800000000001 76.96700000000001 54.52900000000001 C 77.43500000000002 54.62000000000001 77.88700000000001 54.77600000000001 78.31200000000001 54.99200000000001 C 78.22900000000001 55.45500000000001 78.17200000000001 55.85200000000001 78.14200000000001 56.18500000000001 C 78.10400000000001 56.58700000000001 78.08600000000001 56.99200000000001 78.08900000000001 57.39500000000001 L 77.51000000000002 57.40500000000001 z M 83.975 64.724 C 83.28767949264262 64.7906600008421 82.60363012335117 64.56819903010854 82.08699999999999 64.11 C 81.6573867388823 63.53151864813562 81.45750563880567 62.81429823021362 81.52599999999998 62.097 L 81.52599999999998 56.211 L 79.87899999999998 56.211 L 79.87899999999998 55.838 L 81.51699999999998 55.268 L 81.51699999999998 51.964 L 83.29699999999998 51.144999999999996 L 83.59199999999998 51.376999999999995 C 83.51987732644531 51.80350261300313 83.47810578720056 52.234584898009054 83.46699999999998 52.666999999999994 C 83.422480558607 53.467973271104405 83.395807277038 54.269838798272595 83.38699999999997 55.07200000000004 L 83.38699999999999 55.294999999999995 L 86.30699999999999 55.294999999999995 L 86.12899999999999 56.23799999999999 L 83.38699999999999 56.23799999999999 L 83.38699999999999 61.669999999999995 C 83.36199999999998 62.10699999999999 83.47099999999999 62.541999999999994 83.69899999999998 62.916 C 83.88699999999999 63.226 84.22699999999999 63.409 84.58899999999998 63.397 C 84.80499999999998 63.402 85.01899999999999 63.365 85.22099999999999 63.29 C 85.45499999999998 63.19 85.67299999999999 63.058 85.871 62.899 L 86.17399999999999 63.229 L 85.17699999999999 64.448 C 85.03399999999999 64.55399999999999 84.86999999999999 64.628 84.696 64.66199999999999 C 84.459 64.71199999999999 84.216 64.73199999999999 83.975 64.72399999999999 z M 89.041 62.667 L 89.041 56.96 C 89.041 56.408 88.931 56.057 88.711 55.909 C 88.28196461107194 55.71523487431368 87.80933894212113 55.63830383476913 87.341 55.686 L 87.341 55.206 C 87.925 55.146 88.505 55.047000000000004 89.077 54.912000000000006 C 89.64906391671943 54.763622943658845 90.21118330097245 54.579255801586555 90.76 54.36000000000001 L 91.098 54.529 C 91.0171599993937 54.880016106777795 90.96664073233595 55.237331187689605 90.947 55.597 C 90.947 55.989000000000004 90.923 56.749 90.875 57.877 L 90.875 62.703 C 90.875 63.255 90.979 63.605000000000004 91.187 63.753 C 91.63499999999999 63.947 92.12599999999999 64.024 92.612 63.976 L 92.612 64.537 C 91.72199104494793 64.49296709002007 90.83109145728992 64.46929423421031 89.93999999999996 64.46600000000001 C 89.17999999999999 64.46600000000001 88.28999999999999 64.489 87.27 64.537 L 87.27 63.98500000000001 C 87.744 64.03200000000001 88.222 63.955000000000005 88.658 63.76200000000001 C 88.913 63.58400000000001 89.041 63.21900000000001 89.041 62.66700000000001 z M 90.003 49.605000000000004 C 90.303 49.599000000000004 90.592 49.722 90.795 49.943000000000005 C 91.25 50.415000000000006 91.261 51.15800000000001 90.822 51.64300000000001 C 90.61377852454027 51.86023189702718 90.32590842448934 51.983058248293766 90.025 51.983058248293766 C 89.72409157551067 51.983058248293766 89.43622147545975 51.86023189702718 89.22800000000001 51.64300000000001 C 88.80381627629218 51.169432416022026 88.80381627629218 50.45256758397799 89.22800000000001 49.979000000000006 C 89.41688380824614 49.753899989020844 89.69145005339105 49.61824903038915 89.98500000000001 49.605000000000004 L 90.00300000000001 49.605000000000004 z M 96.983 64.724 C 96.29601436155205 64.79037466291332 95.61238443855531 64.56793228203361 95.096 64.11 C 94.66638673888231 63.53151864813562 94.46650563880569 62.81429823021362 94.535 62.097 L 94.535 56.211 L 92.88799999999999 56.211 L 92.88799999999999 55.838 L 94.526 55.268 L 94.526 51.964 L 96.306 51.144999999999996 L 96.601 51.376999999999995 C 96.52887732644533 51.80350261300313 96.48710578720058 52.234584898009054 96.476 52.666999999999994 C 96.43148055860702 53.467973271104405 96.40480727703802 54.269838798272595 96.39599999999999 55.07200000000004 L 96.396 55.294999999999995 L 99.316 55.294999999999995 L 99.138 56.23799999999999 L 96.396 56.23799999999999 L 96.396 61.669999999999995 C 96.375 62.111999999999995 96.49 62.55 96.726 62.925 C 96.914 63.235 97.254 63.418 97.616 63.406 C 97.831 63.411 98.046 63.374 98.248 63.299 C 98.48100000000001 63.199 98.7 63.067 98.89800000000001 62.908 L 99.20100000000001 63.237 L 98.203 64.45700000000001 C 98.061 64.563 97.897 64.63600000000001 97.723 64.671 C 97.47945176015483 64.71903305459776 97.23090765037661 64.73683418678456 96.983 64.724 z M 103.804 57.832 L 103.804 61.26 C 103.771 61.844 103.958 62.419999999999995 104.32900000000001 62.872 C 104.70200000000001 63.274 105.23400000000001 63.489 105.781 63.46 C 106.50525619812441 63.43768252723727 107.19590429461948 63.1493191467419 107.721 62.65 C 108.25 62.248999999999995 108.575 61.637 108.61200000000001 60.975 L 108.61200000000001 59.364000000000004 L 108.63000000000001 56.986000000000004 C 108.6604507574631 56.62827195803957 108.60561656130724 56.26842254576687 108.47000000000001 55.93600000000001 C 108.36900000000001 55.787000000000006 108.13700000000001 55.71300000000001 107.77500000000002 55.71300000000001 L 106.93800000000002 55.71300000000001 L 106.93800000000002 55.205000000000005 C 107.52000000000001 55.145 108.09700000000002 55.047000000000004 108.66600000000001 54.912000000000006 C 109.23500000000001 54.763000000000005 109.79400000000001 54.57900000000001 110.34000000000002 54.36000000000001 L 110.67800000000001 54.529 C 110.59800000000001 54.883 110.54700000000001 55.243 110.52700000000002 55.606 C 110.52700000000002 55.992000000000004 110.50300000000001 56.749 110.45500000000001 57.876000000000005 L 110.45500000000001 62.703 C 110.45500000000001 63.255 110.55900000000001 63.605000000000004 110.76700000000001 63.753 C 111.215 63.948 111.706 64.025 112.19200000000001 63.976 L 112.19200000000001 64.537 L 110.411 64.43 L 108.631 64.43 L 108.631 62.650000000000006 C 108.20648504372375 63.15677594760627 107.72836760130458 63.61611738948163 107.205 64.02000000000001 C 106.495 64.51 105.64699999999999 64.763 104.78399999999999 64.742 C 104.01444716205982 64.78563528224635 103.25885559998666 64.52322717553207 102.68199999999999 64.012 C 102.15423898149353 63.47264706633218 101.87924761456168 62.73521975474476 101.92499999999998 61.982 L 101.92499999999998 56.967999999999996 C 101.95545075746307 56.61027195803956 101.90061656130722 56.25042254576686 101.76499999999999 55.918 C 101.66499999999999 55.769 101.43299999999999 55.695 101.07099999999998 55.695 L 100.23399999999998 55.695 L 100.23399999999998 55.205 C 100.81499999999998 55.144999999999996 101.39199999999998 55.047 101.96099999999998 54.912 C 102.5300362752453 54.76332963175938 103.08914319342222 54.5789646264824 103.63499999999999 54.36 L 103.97299999999998 54.528999999999996 C 103.8911240906814 54.88317639568795 103.83762118992318 55.243317796416726 103.81299999999999 55.605999999999995 C 103.83099999999999 55.961999999999996 103.82799999999999 56.70399999999999 103.80399999999999 57.831999999999994 z M 116.172 57.832 L 116.172 61.26 C 116.139 61.844 116.326 62.419999999999995 116.697 62.872 C 117.07000000000001 63.274 117.602 63.489 118.149 63.46 C 118.87325619812441 63.43768252723727 119.56390429461948 63.1493191467419 120.089 62.65 C 120.617 62.248999999999995 120.943 61.637 120.98 60.975 L 120.98 56.951 C 121.01061084554745 56.59294064453213 120.9557737742114 56.232729632193454 120.82000000000001 55.9 C 120.71900000000001 55.751999999999995 120.48700000000001 55.677 120.12500000000001 55.677 L 119.31500000000001 55.677 L 119.31500000000001 55.205 C 119.897 55.144999999999996 120.47400000000002 55.047 121.04200000000002 54.912 C 121.61200000000001 54.763 122.17100000000002 54.579 122.71600000000002 54.36 L 123.05500000000002 54.528999999999996 C 122.96783808690023 54.86795505998909 122.90830961970107 55.21342082749882 122.87700000000002 55.562 C 122.87700000000002 55.946999999999996 122.85300000000002 56.704 122.80500000000002 57.832 L 122.80500000000002 62.658 C 122.80500000000002 63.21 122.90900000000002 63.561 123.11700000000002 63.708 C 123.56500000000001 63.903999999999996 124.05600000000001 63.98 124.54200000000002 63.931999999999995 L 124.54200000000002 64.49199999999999 L 122.76100000000001 64.386 L 120.98100000000001 64.386 L 120.98100000000001 62.605 C 120.55653953714382 63.11212549481062 120.0784201317156 63.57180410970689 119.555 63.976 C 118.84500000000001 64.466 117.997 64.719 117.134 64.697 C 116.36444716205983 64.74063528224634 115.60885559998667 64.47822717553207 115.032 63.967000000000006 C 114.50423898149354 63.427647066332185 114.22924761456169 62.69021975474477 114.27499999999999 61.937000000000005 L 114.27499999999999 56.92400000000001 C 114.30545075746308 56.56627195803957 114.25061656130723 56.20642254576687 114.115 55.87400000000001 C 114.015 55.72400000000001 113.783 55.65100000000001 113.42099999999999 55.65100000000001 L 112.58399999999999 55.65100000000001 L 112.58399999999999 55.20500000000001 C 113.16499999999999 55.14500000000001 113.74199999999999 55.04700000000001 114.31099999999999 54.91200000000001 C 114.8800362752453 54.7633296317594 115.43914319342223 54.57896462648242 115.985 54.360000000000014 L 116.323 54.52900000000001 C 116.24112409068141 54.88317639568796 116.18762118992319 55.24331779641674 116.163 55.60600000000001 C 116.187 55.96200000000001 116.19 56.70400000000001 116.172 57.83200000000001 z M 129.047 64.724 C 128.36116579609924 64.79254727835493 127.67768353681012 64.57305059095206 127.16 64.11800000000001 C 126.73062702898963 63.53978341805935 126.53075864767433 62.82296490967005 126.59899999999999 62.10600000000001 L 126.59899999999999 56.21200000000001 L 124.951 56.21200000000001 L 124.951 55.83800000000001 L 126.58999999999999 55.26800000000001 L 126.58999999999999 51.964 L 128.36999999999998 51.144999999999996 L 128.664 51.376999999999995 C 128.5922091664049 51.8035261211529 128.55077179212503 52.234608482612764 128.54 52.666999999999994 C 128.4954808890817 53.467973285783174 128.46880760775764 54.269838805587796 128.45999999999998 55.07200000000002 L 128.45999999999998 55.294999999999995 L 131.37999999999997 55.294999999999995 L 131.20199999999997 56.23799999999999 L 128.45999999999998 56.23799999999999 L 128.45999999999998 61.669999999999995 C 128.438 62.111999999999995 128.55299999999997 62.55 128.789 62.925 C 128.97799999999998 63.235 129.31799999999998 63.418 129.67899999999997 63.406 C 129.89499999999998 63.411 130.10899999999998 63.374 130.31199999999998 63.299 C 130.545 63.199 130.76399999999998 63.067 130.962 62.908 L 131.26399999999998 63.237 L 130.26699999999997 64.45700000000001 C 130.12499999999997 64.563 129.95999999999998 64.63600000000001 129.78699999999998 64.671 C 129.54345176015482 64.71903305459776 129.29490765037656 64.73683418678458 129.04699999999997 64.724 z" stroke-linecap="round" />
</g>
<g transform="matrix(2.1 0 0 2.1 63.18 142.34)"  >
<path style="stroke: none; stroke-width: 1; stroke-dasharray: none; stroke-linecap: butt; stroke-dashoffset: 0; stroke-linejoin: miter; stroke-miterlimit: 4; fill: rgb(108,202,186); fill-rule: nonzero; opacity: 1;" vector-effect="non-scaling-stroke"  transform=" translate(-17.81, -28.71)" d="M 0 44.895 L 0 47.45 L 0.801 47.45 C 5.436414057158141 47.42564526156452 10.037724693993182 48.24324191595943 14.38100000000002 49.863 L 14.381 29.286 C 14.381 25.448 15.831 23.364 17.888 21.976000000000003 C 19.874000000000002 23.391000000000002 21.450000000000003 25.537000000000003 21.450000000000003 29.286 L 21.370000000000005 53.478 C 23.076548258263582 54.628138922123114 24.660814129322386 55.950035889408845 26.098000000000006 57.422999999999995 L 26.098000000000006 29.179 C 26.098000000000006 22.732 22.678000000000004 19.162 18.921000000000006 16.952999999999996 C 18.577000000000005 16.751999999999995 18.221000000000007 16.572999999999997 17.853000000000005 16.418999999999997 C 17.485754784748057 16.574262690824714 17.128707363830813 16.752619400618734 16.784000000000002 16.952999999999996 C 12.261412001611962 19.33234978843932 9.480128921992897 24.07130578265647 9.608 29.179999999999993 L 9.608 44.896 L 4.746 44.896 L 4.746 29.499 C 4.728 16.758 10.32 10.026 17.808 5.78 C 24.816 10.027000000000001 30.878999999999998 16.767 30.878999999999998 29.51 L 30.878999999999998 44.904 L 35.616 44.904 L 35.616 29.224000000000004 C 35.616 14.087000000000003 27.736 5.8060000000000045 18.698999999999998 0.4550000000000054 C 18.412292868484567 0.28488865361495336 18.11502211645037 0.13324716886941945 17.808999999999997 0.0010000000000047748 C 17.502382117384307 0.13266612258880983 17.20474169982648 0.2843257741839327 16.917999999999996 0.4550000000000087 C 8.236 5.387 0 14.086 0 29.224 L 0 44.894 Z" stroke-linecap="round" />
</g>
<g transform="matrix(2.1 0 0 2.1 228.62 121.68)"  >
<path style="stroke: none; stroke-width: 1; stroke-dasharray: none; stroke-linecap: butt; stroke-dashoffset: 0; stroke-linejoin: miter; stroke-miterlimit: 4; fill: rgb(255,255,255); fill-rule: nonzero; opacity: 1;" vector-effect="non-scaling-stroke"  transform=" translate(-102.08, -18.87)" d="M 54.894 16.668 C 54.858 17.131999999999998 54.839999999999996 17.618 54.839999999999996 18.128 L 54.839999999999996 20.8 C 54.812176808190856 21.341060093428354 54.836287093413816 21.883541510944774 54.912 22.42 C 54.964999999999996 22.518 55.134 22.572000000000003 55.437 22.572000000000003 L 55.784 22.572000000000003 L 55.784 22.857000000000003 L 53.015 22.857000000000003 L 53.015 22.572000000000003 L 53.425 22.572000000000003 C 53.563438635228415 22.588309820419443 53.70348349841201 22.560300847782724 53.824999999999996 22.492000000000004 C 53.8996437600514 22.40516549760701 53.94078598485539 22.294507099858343 53.940999999999995 22.180000000000003 C 53.940999999999995 21.824 53.986 21.352000000000004 53.986 20.782000000000004 L 53.986 16.677 L 53.425 16.677 C 53.004999999999995 16.659 52.584999999999994 16.677 52.169 16.730999999999998 C 52.089 16.730999999999998 52.044999999999995 16.9 52.017999999999994 17.141 L 51.95499999999999 17.755 L 51.67099999999999 17.755 L 51.67099999999999 17.212 C 51.67099999999999 16.989 51.67099999999999 16.668 51.60799999999999 16.259 L 57.12 16.259 C 57.059999999999995 16.781 57.028 17.283 57.022 17.764 L 56.737 17.764 L 56.692 17.157999999999998 C 56.691462259186544 17.032043071143715 56.66419470486332 16.907634854543986 56.612 16.793 C 56.54599490402022 16.74241871096247 56.46401999384871 16.71722295935131 56.381 16.721999999999998 L 55.223 16.721999999999998 L 54.893 16.668 z M 61.562999999999995 20.595 L 58.891999999999996 20.595 L 58.571999999999996 21.352 C 58.431 21.635 58.32599999999999 21.934 58.26 22.242 C 58.25383884652439 22.298066892498007 58.273313727406496 22.353919381065566 58.312999999999995 22.394000000000002 C 58.40487801210923 22.438186635879074 58.505082419949154 22.4623856595411 58.60699999999999 22.465000000000003 L 59.05199999999999 22.518000000000004 L 59.05199999999999 22.803000000000004 L 56.88799999999999 22.803000000000004 L 56.88799999999999 22.518000000000004 L 56.98599999999999 22.518000000000004 C 57.12899999999999 22.528000000000006 57.27099999999999 22.506000000000004 57.40499999999999 22.456000000000003 C 57.49659670761427 22.38010857845081 57.567181974283606 22.281977841861732 57.609999999999985 22.171000000000003 C 57.829999999999984 21.726000000000003 58.051999999999985 21.245000000000005 58.27699999999999 20.729000000000003 L 59.54199999999999 17.853 C 59.87999999999999 17.087000000000003 60.11199999999999 16.532 60.23599999999999 16.188000000000002 L 60.55599999999999 16.188000000000002 L 62.88999999999999 21.628000000000004 C 62.977999999999994 21.858000000000004 63.081999999999994 22.081000000000003 63.20099999999999 22.296000000000003 C 63.24399999999999 22.367000000000004 63.30599999999999 22.426000000000002 63.37899999999999 22.466000000000005 C 63.526999999999994 22.508000000000006 63.67999999999999 22.529000000000003 63.83399999999999 22.527000000000005 L 63.83399999999999 22.812000000000005 L 61.35799999999999 22.812000000000005 L 61.35799999999999 22.527000000000005 L 61.81199999999999 22.527000000000005 C 61.91199999999999 22.527000000000005 62.01199999999999 22.508000000000006 62.10599999999999 22.474000000000004 C 62.15067544311714 22.44409757865042 62.177347874697475 22.393758059893162 62.176999999999985 22.340000000000003 C 62.15070042548198 22.189765725550366 62.106032097936044 22.043334215700558 62.04399999999998 21.904000000000003 L 61.56299999999998 20.595000000000002 z M 59.06099999999999 20.221 L 61.437999999999995 20.221 L 60.272 17.425 L 59.061 20.221 z M 66.255 22.358 L 67.145 22.358 C 67.725 22.358 68.179 22.358 68.508 22.314 C 68.74799999999999 22.287 68.987 22.242 69.22099999999999 22.18 L 69.45199999999998 21.12 L 69.73699999999998 21.12 C 69.65699999999998 21.708000000000002 69.59499999999998 22.251 69.54999999999998 22.759 C 69.17247851344564 22.812805923071 68.79128032227946 22.836547213924334 68.40999999999998 22.830000000000002 L 64.831 22.830000000000002 L 64.831 22.590000000000003 C 65.081 22.483000000000004 65.223 22.367000000000004 65.26700000000001 22.242000000000004 C 65.337 21.759000000000004 65.36000000000001 21.270000000000003 65.33800000000001 20.782000000000004 L 65.33800000000001 18.236000000000004 C 65.3642892469172 17.72184979276247 65.3435362777223 17.206372815985823 65.27600000000001 16.696000000000005 C 65.27600000000001 16.588000000000005 65.10600000000001 16.535000000000004 64.90200000000002 16.535000000000004 L 64.40300000000002 16.535000000000004 L 64.40300000000002 16.250000000000004 L 67.17300000000002 16.250000000000004 L 67.17300000000002 16.535000000000004 L 66.60300000000002 16.535000000000004 C 66.44300000000003 16.535000000000004 66.33600000000003 16.579000000000004 66.29100000000003 16.677000000000003 C 66.23852000224083 17.05162192350308 66.2264507087221 17.43079889488301 66.25500000000002 17.808000000000003 L 66.25500000000002 22.358000000000004 z M 72.12299999999999 22.358 L 73.01299999999999 22.358 C 73.59299999999999 22.358 74.047 22.358 74.37599999999999 22.314 C 74.61299999999999 22.287 74.84899999999999 22.242 75.079 22.18 L 75.35499999999999 21.094 L 75.68499999999999 21.094 C 75.60959765223892 21.638428661648206 75.54724643819667 22.184585285184177 75.49799999999999 22.731999999999992 C 75.12047851344565 22.785805923071 74.73928032227947 22.809547213924333 74.35799999999999 22.803 L 70.77799999999999 22.803 L 70.77799999999999 22.563000000000002 C 71.02799999999999 22.456000000000003 71.17099999999999 22.340000000000003 71.21499999999999 22.216 C 71.26499999999999 21.736 71.27099999999999 21.254 71.23299999999999 20.773 L 71.23299999999999 18.236 C 71.25699999999999 17.721 71.23299999999999 17.206 71.16199999999999 16.696 C 71.16199999999999 16.588 70.99199999999999 16.535 70.788 16.535 L 70.342 16.535 L 70.342 16.25 L 73.121 16.25 L 73.121 16.535 L 72.541 16.535 C 72.381 16.535 72.27499999999999 16.579 72.231 16.677 C 72.1528558023132 17.04878068691581 72.11662965433375 17.428148958811754 72.12299999999999 17.808 L 72.12299999999999 22.358 z M 76.30799999999999 22.536 L 76.57499999999999 22.536 C 76.85999999999999 22.536 77.03799999999998 22.466 77.09199999999998 22.332 C 77.18199999999999 21.671 77.21199999999999 21.003 77.18099999999998 20.337 L 77.18099999999998 18.77 C 77.21099999999998 18.09 77.18699999999998 17.408 77.10999999999999 16.73 C 77.06499999999998 16.606 76.91399999999999 16.544 76.66399999999999 16.544 L 76.30799999999999 16.544 L 76.30799999999999 16.259 L 78.98 16.259 L 78.98 16.544 L 78.623 16.544 C 78.4787089800404 16.525679012820394 78.33232897915853 16.553694323993955 78.205 16.624 C 78.12922456599823 16.74292413773628 78.0947793579538 16.883516823631965 78.107 17.023999999999997 L 78.107 20.4 C 78.077 21.06 78.103 21.721999999999998 78.187 22.377 C 78.24 22.502 78.41 22.564 78.695 22.564 L 79.006 22.564 L 79.006 22.849 L 76.344 22.849 L 76.30799999999999 22.537 z M 81.499 17.283 L 81.499 22.002000000000002 C 81.49531246308857 22.142865973120273 81.5324742600142 22.28178857844974 81.606 22.402 C 81.74237458672334 22.476196812047654 81.89578584031412 22.513429206177552 82.05099999999999 22.51 L 82.35399999999998 22.51 L 82.35399999999998 22.795 L 80.16399999999999 22.795 L 80.16399999999999 22.51 L 80.50199999999998 22.51 C 80.63788221193386 22.5264866701803 80.77544420916306 22.49841279319475 80.89399999999998 22.430000000000003 C 80.96990877149537 22.336860736457282 81.01093411659234 22.220150702991752 81.00999999999998 22.100000000000005 C 81.04499999999997 21.762000000000004 81.06299999999997 21.302000000000007 81.06299999999997 20.720000000000006 L 81.06299999999997 17.158000000000005 C 81.06930403553031 17.032374395188214 81.04493601888976 16.907102196965692 80.99199999999998 16.793000000000006 C 80.94621194414889 16.721512780375427 80.88548721962455 16.660788055851103 80.81399999999998 16.615000000000006 C 80.71128548875093 16.555678319360787 80.5933990358893 16.527858507476036 80.47499999999998 16.535000000000007 L 80.18999999999998 16.535000000000007 L 80.18999999999998 16.250000000000007 L 81.81099999999998 16.250000000000007 C 82.11399999999998 16.624000000000006 82.41099999999997 16.986000000000008 82.70099999999998 17.336000000000006 C 82.99199999999998 17.686000000000007 83.27099999999997 18.043000000000006 83.53799999999998 18.405000000000005 L 85.11399999999998 20.345000000000006 C 85.52743256241637 20.826081766078072 85.93744290448794 21.31009397476743 86.34399999999998 21.797000000000004 L 86.34399999999998 18.823000000000004 C 86.37099999999998 18.143000000000004 86.34999999999998 17.462000000000003 86.28099999999998 16.784000000000002 C 86.23599999999998 16.668000000000003 86.05799999999998 16.597 85.74699999999997 16.571 L 85.39899999999997 16.571 L 85.39899999999997 16.286 L 87.66999999999997 16.286 L 87.66999999999997 16.571 L 87.25999999999998 16.571 C 86.97499999999998 16.571 86.80599999999998 16.668000000000003 86.76199999999997 16.855 C 86.71699999999997 17.042 86.76199999999997 17.657 86.76199999999997 18.877 L 86.76199999999997 20.96 C 86.76199999999997 21.524 86.78499999999997 22.195 86.83199999999997 22.973 C 86.58534442545314 22.944221284539513 86.34128355530761 22.896412100387717 86.10199999999996 22.83 C 86.02732609167253 22.797621702750494 85.96073628655436 22.74913066517726 85.90699999999997 22.688 C 85.56299999999997 22.308 85.20299999999997 21.886 84.82899999999997 21.423 L 81.49899999999997 17.282999999999998 z M 89.655 17.283 L 89.655 22.002000000000002 C 89.65131246308857 22.142865973120273 89.6884742600142 22.28178857844974 89.762 22.402 C 89.89867033314133 22.476366766286073 90.05244871299118 22.51360458024075 90.208 22.51 L 90.501 22.51 L 90.501 22.795 L 88.311 22.795 L 88.311 22.51 L 88.641 22.51 C 88.7765530422713 22.526265464925345 88.91372865753473 22.498198842876562 89.03200000000001 22.430000000000003 C 89.1079087714954 22.336860736457282 89.14893411659237 22.220150702991752 89.14800000000001 22.100000000000005 C 89.18400000000001 21.762000000000004 89.20100000000001 21.302000000000007 89.20100000000001 20.720000000000006 L 89.20100000000001 17.158000000000005 C 89.20590929044232 17.03257941626001 89.18196091601901 16.907705749624135 89.13100000000001 16.793000000000006 C 89.01960958274508 16.618041706904847 88.82077608189559 16.518817251935467 88.61400000000002 16.535000000000007 L 88.32900000000002 16.535000000000007 L 88.32900000000002 16.250000000000007 L 89.94900000000003 16.250000000000007 C 90.25200000000002 16.624000000000006 90.54900000000002 16.986000000000008 90.83900000000003 17.336000000000006 C 91.13100000000003 17.686000000000007 91.40900000000002 18.043000000000006 91.67700000000002 18.405000000000005 L 93.25300000000001 20.345000000000006 C 93.84600000000002 21.040000000000006 94.25600000000001 21.525000000000006 94.48200000000001 21.797000000000004 L 94.48200000000001 18.823000000000004 C 94.51000000000002 18.143000000000004 94.48900000000002 17.462000000000003 94.41900000000001 16.784000000000002 C 94.37500000000001 16.668000000000003 94.19700000000002 16.597 93.885 16.571 L 93.53800000000001 16.571 L 93.53800000000001 16.286 L 95.808 16.286 L 95.808 16.571 L 95.45200000000001 16.571 C 95.16700000000002 16.571 94.99800000000002 16.668000000000003 94.95300000000002 16.855 C 94.90900000000002 17.042 94.95300000000002 17.657 94.95300000000002 18.877 L 94.95300000000002 20.96 C 94.95300000000002 21.524 94.97700000000002 22.195 95.02500000000002 22.973 C 94.77842440833712 22.94371046301117 94.53440221823078 22.895908855908147 94.29500000000002 22.83 C 94.22039262203687 22.797002987401765 94.1536001975393 22.748612557408627 94.09900000000002 22.688 C 93.69500000000002 22.284 93.31800000000001 21.845 92.96800000000002 21.369999999999997 L 89.65500000000002 17.282999999999998 z M 100.616 20.595000000000002 L 97.946 20.595000000000002 L 97.625 21.352000000000004 C 97.485 21.635000000000005 97.38 21.934000000000005 97.313 22.242000000000004 C 97.30913440595423 22.29951451100103 97.33201035903707 22.355597492752537 97.375 22.394000000000005 C 97.46687801210923 22.438186635879077 97.56708241994916 22.462385659541102 97.669 22.465000000000007 L 98.11399999999999 22.518000000000008 L 98.11399999999999 22.803000000000008 L 95.951 22.803000000000008 L 95.951 22.518000000000008 L 96.08399999999999 22.518000000000008 C 96.22699999999999 22.52800000000001 96.36899999999999 22.506000000000007 96.50299999999999 22.456000000000007 C 96.59459670761427 22.380108578450812 96.66518197428361 22.281977841861735 96.70799999999998 22.171000000000006 C 96.92799999999998 21.726000000000006 97.14999999999998 21.245000000000008 97.37499999999999 20.729000000000006 L 98.63999999999999 17.853000000000005 C 98.97799999999998 17.087000000000003 99.20999999999998 16.532000000000004 99.33399999999999 16.188000000000006 L 99.65399999999998 16.188000000000006 L 101.98799999999999 21.628000000000007 C 102.07599999999998 21.858000000000008 102.17999999999998 22.081000000000007 102.29899999999999 22.296000000000006 C 102.342 22.368000000000006 102.404 22.426000000000005 102.47699999999999 22.466000000000008 C 102.62499999999999 22.50800000000001 102.77699999999999 22.529000000000007 102.93199999999999 22.527000000000008 L 102.93199999999999 22.81200000000001 L 100.45599999999999 22.81200000000001 L 100.45599999999999 22.527000000000008 L 100.90999999999998 22.527000000000008 C 101.00999999999998 22.527000000000008 101.10999999999999 22.50800000000001 101.20399999999998 22.474000000000007 C 101.24867544311714 22.444097578650425 101.27534787469747 22.393758059893166 101.27499999999998 22.340000000000007 C 101.24843823512587 22.18982853657487 101.20377949055775 22.043428441599623 101.14199999999998 21.904000000000007 L 100.61599999999999 20.595000000000006 z M 98.114 20.221000000000004 L 100.456 20.221000000000004 L 99.29 17.425000000000004 L 98.114 20.221000000000004 z M 107.214 16.535000000000004 L 107.214 16.250000000000004 L 109.92999999999999 16.250000000000004 L 109.92999999999999 16.535000000000004 L 109.592 16.535000000000004 C 109.307 16.535000000000004 109.129 16.588000000000005 109.075 16.705000000000005 C 108.98400547039513 17.200815261577475 108.95411602308688 17.705913337438425 108.986 18.209000000000003 L 108.986 19.989000000000008 C 108.968 20.45200000000001 109.004 20.916000000000007 109.093 21.369000000000007 C 109.185 21.65500000000001 109.387 21.892000000000007 109.65400000000001 22.029000000000007 C 110.02700000000002 22.223000000000006 110.44400000000002 22.31500000000001 110.86500000000001 22.296000000000006 C 111.32100000000001 22.311000000000007 111.77400000000002 22.213000000000008 112.183 22.011000000000006 C 112.432 21.878000000000007 112.625 21.660000000000007 112.72600000000001 21.397000000000006 C 112.86900000000001 20.881000000000007 112.92600000000002 20.346000000000007 112.89600000000002 19.812000000000005 L 112.89600000000002 18.03 C 112.93337439170193 17.56718332347648 112.89691924883013 17.101367609003624 112.78800000000001 16.650000000000002 C 112.71800000000002 16.534000000000002 112.52100000000002 16.472 112.19200000000001 16.472 L 111.95200000000001 16.472 L 111.95200000000001 16.187 L 114.21300000000001 16.187 L 114.21300000000001 16.472 L 113.89300000000001 16.472 C 113.64300000000001 16.472 113.49200000000002 16.534000000000002 113.42100000000002 16.667 C 113.31700000000002 17.12 113.28100000000002 17.585 113.31400000000002 18.047 L 113.31400000000002 19.775000000000002 C 113.33773458614603 20.312025257622754 113.29880535286173 20.84998698999103 113.19800000000002 21.378 C 113.11904539670977 21.658528860048065 112.97241984661215 21.9153811117413 112.77100000000002 22.126000000000005 C 112.53621764580726 22.363202753119186 112.24975177915341 22.54288564438951 111.93400000000001 22.651000000000003 C 111.53906919805668 22.789557475598635 111.1224357158743 22.855947851621192 110.70400000000001 22.847000000000005 C 110.274 22.855000000000004 109.84500000000001 22.798000000000005 109.432 22.677000000000003 C 109.13150776237124 22.594353622271978 108.85200371671297 22.448807003374316 108.61200000000001 22.250000000000004 C 108.42769875856587 22.079860498525203 108.28999818952822 21.865391862249076 108.212 21.627000000000002 C 108.1118374148371 21.21963024895133 108.0697545493537 20.80014824581285 108.087 20.381000000000007 L 108.087 18.154000000000003 C 108.114 17.666000000000004 108.087 17.177000000000003 108.007 16.694000000000003 C 107.953 16.587000000000003 107.793 16.534000000000002 107.51700000000001 16.534000000000002 L 107.21400000000001 16.534000000000002 z M 109.886 14.755000000000004 C 110.09155773584415 14.755000398269297 110.2768559201368 14.878879103592174 110.35542571450233 15.068828492058913 C 110.43399550886787 15.258777880525653 110.3903495862556 15.477355976806932 110.24485518470685 15.622563972053417 C 110.0993607831581 15.767771967299904 109.88069710947273 15.810987109843241 109.69090290693737 15.732043183860954 C 109.50110870440201 15.653099257878667 109.3775953587881 15.467557337575244 109.378 15.262000000000006 C 109.37591012648966 15.127064278840356 109.43071939484713 14.997482101332919 109.529 14.905000000000005 C 109.62370762051526 14.811041629553749 109.75263127007929 14.759761074264976 109.886 14.763000000000005 L 109.886 14.754000000000005 z M 111.88 14.763000000000003 C 112.16 14.763000000000003 112.38799999999999 14.990000000000004 112.38799999999999 15.271000000000004 C 112.39084789888688 15.408615307863924 112.33568341148413 15.541082662482369 112.23599999999999 15.636000000000005 C 112.14217494583595 15.73152515381731 112.01389621279448 15.78533587544617 111.88 15.78533587544617 C 111.7461037872055 15.78533587544617 111.61782505416403 15.731525153817312 111.52399999999999 15.636000000000005 C 111.42763184877778 15.540589783567754 111.37341152751414 15.41060947595812 111.37341152751414 15.275000000000006 C 111.37341152751414 15.13939052404189 111.42763184877778 15.009410216432256 111.52399999999999 14.914000000000005 C 111.6206383335011 14.817987493371515 111.75288409168141 14.766538458682192 111.88899999999998 14.772000000000006 L 111.87999999999998 14.763000000000005 z M 116.991 22.358000000000004 L 117.881 22.358000000000004 C 118.461 22.358000000000004 118.914 22.358000000000004 119.244 22.314000000000004 C 119.484 22.287000000000003 119.722 22.242000000000004 119.956 22.180000000000003 L 120.232 21.094000000000005 L 120.517 21.094000000000005 C 120.44159765223893 21.63842866164821 120.37924643819666 22.18458528518419 120.33 22.732000000000003 C 119.95247851344566 22.785805923071006 119.57128032227948 22.80954721392434 119.19 22.803000000000008 L 115.611 22.803000000000008 L 115.611 22.56300000000001 C 115.79474257118488 22.506171284811998 115.9503834285612 22.38230115290929 116.04700000000001 22.216000000000008 C 116.11500000000001 21.732000000000006 116.13900000000001 21.24300000000001 116.11800000000001 20.756000000000007 L 116.11800000000001 18.236000000000008 C 116.141 17.721000000000007 116.11800000000001 17.206000000000007 116.04800000000002 16.69600000000001 C 116.00300000000001 16.588000000000008 115.87800000000001 16.535000000000007 115.67300000000002 16.535000000000007 L 115.17500000000001 16.535000000000007 L 115.17500000000001 16.250000000000007 L 117.94400000000002 16.250000000000007 L 117.94400000000002 16.535000000000007 L 117.37400000000002 16.535000000000007 C 117.21400000000003 16.535000000000007 117.10700000000003 16.579000000000008 117.06200000000003 16.677000000000007 C 116.99754827506895 17.06243452617829 116.97675029938519 17.453906100742167 117.00000000000003 17.84400000000001 L 117.00000000000003 22.082000000000008 L 116.99100000000003 22.358000000000008 z M 121.096 22.536000000000005 L 121.39 22.536000000000005 C 121.675 22.536000000000005 121.853 22.466000000000005 121.906 22.332000000000004 C 121.99600000000001 21.671000000000003 122.02600000000001 21.003000000000004 121.99600000000001 20.337000000000003 L 121.99600000000001 18.77 C 122.02600000000001 18.09 122.00200000000001 17.408 121.924 16.73 C 121.87100000000001 16.606 121.72800000000001 16.544 121.47900000000001 16.544 L 121.09600000000002 16.544 L 121.09600000000002 16.259 L 123.76700000000002 16.259 L 123.76700000000002 16.544 L 123.41100000000003 16.544 C 123.26636169524579 16.5248192865528 123.1193969984834 16.552879371853493 122.99200000000003 16.624 C 122.91528425772134 16.742493761107717 122.88108347559147 16.88352791422062 122.89500000000004 17.023999999999997 L 122.89500000000004 20.4 C 122.86300000000004 21.06 122.89000000000004 21.721999999999998 122.97500000000004 22.377 C 123.02800000000003 22.502 123.19700000000003 22.564 123.48200000000004 22.564 L 123.76700000000004 22.564 L 123.76700000000004 22.849 L 121.096 22.849 L 121.096 22.537 z M 127.676 19.171000000000006 L 130.81 22.127000000000006 L 131.095 22.403000000000006 C 131.144 22.456000000000007 131.205 22.496000000000006 131.273 22.518000000000004 C 131.371 22.531000000000006 131.47 22.531000000000006 131.567 22.518000000000004 L 131.567 22.803000000000004 L 130.24 22.803000000000004 L 127.06200000000001 19.776000000000003 C 126.95500000000001 19.678000000000004 126.89200000000001 19.625000000000004 126.86600000000001 19.625000000000004 C 126.83900000000001 19.625000000000004 126.76800000000001 19.687000000000005 126.76800000000001 19.803000000000004 L 126.76800000000001 21.210000000000004 C 126.73800000000001 21.586000000000006 126.73800000000001 21.964000000000006 126.76800000000001 22.340000000000003 C 126.81200000000001 22.447000000000003 126.98200000000001 22.510000000000005 127.27500000000002 22.510000000000005 L 127.62300000000002 22.510000000000005 L 127.62300000000002 22.795000000000005 L 124.95 22.795000000000005 L 124.95 22.510000000000005 L 125.324 22.510000000000005 C 125.574 22.510000000000005 125.716 22.465000000000003 125.77 22.376000000000005 C 125.84299999999999 21.989000000000004 125.86699999999999 21.594000000000005 125.83999999999999 21.201000000000004 L 125.83999999999999 18.129000000000005 C 125.868 17.649000000000004 125.844 17.169000000000004 125.77 16.695000000000004 C 125.716 16.588000000000005 125.574 16.535000000000004 125.324 16.535000000000004 L 124.95 16.535000000000004 L 124.95 16.250000000000004 L 127.623 16.250000000000004 L 127.623 16.535000000000004 L 127.32900000000001 16.535000000000004 C 127.19005834053806 16.5277901503744 127.05177658741891 16.558557840443413 126.929 16.624000000000002 C 126.85916760789834 16.702480455073236 126.82071628273881 16.803949229799795 126.821 16.909000000000002 L 126.821 19.384000000000004 L 126.884 19.384000000000004 C 127.133 19.179000000000006 127.355 18.992000000000004 127.534 18.814000000000004 C 127.712 18.636000000000003 128.014 18.342000000000002 128.424 17.924000000000003 L 129.733 16.562000000000005 L 129.733 16.242000000000004 L 131.336 16.242000000000004 L 131.336 16.526000000000003 L 131.086 16.526000000000003 C 130.89176604681109 16.519637895879843 130.69909186004904 16.562645526853515 130.526 16.651000000000003 C 130.14600000000002 16.918000000000003 129.78900000000002 17.216000000000005 129.45600000000002 17.541000000000004 L 127.67600000000002 19.171000000000003 z M 131.781 19.536000000000005 C 131.7436350190412 18.61993427356616 132.10037466690474 17.731725354395742 132.761 17.096000000000004 C 133.47972126292524 16.46835109170587 134.41652132200193 16.148660887496423 135.369 16.206000000000003 C 136.28753304228601 16.162469117901907 137.18629893762613 16.482174012727125 137.871 17.096000000000004 C 138.48042946921737 17.69681385789215 138.8042552857636 18.529300900878393 138.761 19.384000000000004 C 138.78541430223356 20.348272338944447 138.40456340836522 21.278636665394256 137.71099999999998 21.949000000000005 C 136.9990792698572 22.643618772650186 136.03403832429373 23.016845016291914 135.04 22.982000000000006 C 134.4391216992644 22.99894120383728 133.84400745882604 22.86083888299481 133.31199999999998 22.581000000000007 C 132.8226002411753 22.306026663339466 132.42373579584915 21.894654273734783 132.164 21.397000000000006 C 131.87723710538364 20.8478463023393 131.7331534684309 20.23540487653308 131.74499999999998 19.616000000000007 M 132.68899999999996 19.242000000000008 C 132.67899999999997 19.854000000000006 132.79999999999995 20.462000000000007 133.04499999999996 21.02200000000001 C 133.24499999999995 21.492000000000008 133.57599999999996 21.893000000000008 133.99799999999996 22.18000000000001 C 134.40499999999997 22.437000000000012 134.87799999999996 22.57000000000001 135.35999999999996 22.56300000000001 C 135.79799999999994 22.57300000000001 136.22999999999996 22.45800000000001 136.60699999999997 22.23300000000001 C 136.97599999999997 22.00000000000001 137.26699999999997 21.66300000000001 137.44399999999996 21.263000000000012 C 137.65952573418522 20.76629710001953 137.76297748044738 20.228211449494268 137.74699999999996 19.687000000000012 C 137.76324047093962 19.11334156371918 137.64724722454426 18.543640220803933 137.40799999999996 18.022000000000013 C 137.21960307578266 17.595113664069512 136.91017233307474 17.23283632260697 136.51799999999997 16.98000000000001 C 136.09491087955553 16.739912748412404 135.6142874266683 16.61992977132473 135.128 16.63300000000001 C 134.6834811870927 16.622033896000158 134.24407034535946 16.729729247626846 133.855 16.94500000000001 C 133.49499999999998 17.15300000000001 133.20499999999998 17.46300000000001 133.018 17.83500000000001 C 132.809 18.26100000000001 132.705 18.731000000000012 132.716 19.20600000000001 M 139.518 19.53600000000001 C 139.48179831192698 18.620135028174488 139.83835364331145 17.732385019421308 140.498 17.096000000000007 C 141.2169732198013 16.46810113512657 142.15418259613764 16.14839383541812 143.107 16.206000000000007 C 144.025533042286 16.16246911790191 144.92429893762613 16.48217401272713 145.609 17.096000000000007 C 146.21842946921737 17.696813857892153 146.5422552857636 18.529300900878397 146.499 19.384000000000007 C 146.52341430223356 20.34827233894445 146.14256340836522 21.27863666539426 145.44899999999998 21.94900000000001 C 144.73683636646035 22.643874335162756 143.77138116149084 23.017121051754643 142.777 22.98200000000001 C 142.17649440564026 22.99840883054707 141.58183608891747 22.860332406108256 141.04999999999998 22.58100000000001 C 140.5638760930754 22.304393731462124 140.16800718864823 21.89324567633774 139.91 21.39700000000001 C 139.62430866784305 20.84748659651879 139.48061400679703 20.23523733498064 139.492 19.616000000000014 M 140.43599999999998 19.24200000000001 C 140.426 19.85400000000001 140.54699999999997 20.46200000000001 140.79199999999997 21.022000000000013 C 140.99199999999996 21.49200000000001 141.32299999999998 21.89300000000001 141.74499999999998 22.180000000000014 C 142.152 22.437000000000015 142.62499999999997 22.570000000000014 143.10699999999997 22.563000000000013 C 143.54499999999996 22.573000000000015 143.97699999999998 22.458000000000013 144.35299999999998 22.233000000000015 C 144.7220549633549 21.999865911612385 145.01341236925944 21.662211570241535 145.18999999999997 21.263000000000016 C 145.40599999999998 20.766000000000016 145.50999999999996 20.228000000000016 145.49299999999997 19.687000000000015 C 145.50955365010222 19.113419639048352 145.3939032852658 18.543721835934015 145.15499999999997 18.022000000000016 C 144.97226880841535 17.569854448061783 144.65537767167362 17.184559497662132 144.24699999999999 16.918000000000017 C 143.8215698785747 16.67649229923686 143.33798401201273 16.55646061418892 142.849 16.571000000000016 C 142.40099999999998 16.571000000000016 141.96099999999998 16.691000000000017 141.575 16.918000000000017 C 141.21470886499017 17.12610372351461 140.9236189186195 17.43562588871163 140.738 17.80800000000002 C 140.529 18.234000000000016 140.425 18.705000000000016 140.436 19.179000000000016 M 149.037 22.359000000000016 L 149.927 22.359000000000016 C 150.507 22.359000000000016 150.95999999999998 22.359000000000016 151.29 22.314000000000014 C 151.5273412899623 22.28688889095063 151.7623275745946 22.242097764150166 151.993 22.180000000000014 L 152.269 21.094000000000015 L 152.554 21.094000000000015 C 152.47859765223893 21.638428661648216 152.41624643819668 22.1845852851842 152.367 22.73200000000001 C 151.98947466166797 22.78576823977912 151.6082794685444 22.809509343912257 151.227 22.803000000000015 L 147.648 22.803000000000015 L 147.648 22.563000000000017 C 147.898 22.456000000000017 148.04 22.340000000000018 148.084 22.216000000000015 C 148.154 21.732000000000014 148.178 21.243000000000016 148.155 20.756000000000014 L 148.155 18.236000000000015 C 148.18 17.721000000000014 148.156 17.206000000000014 148.085 16.696000000000016 C 148.04000000000002 16.588000000000015 147.91500000000002 16.535000000000014 147.71 16.535000000000014 L 147.203 16.535000000000014 L 147.203 16.250000000000014 L 149.981 16.250000000000014 L 149.981 16.535000000000014 L 149.411 16.535000000000014 C 149.251 16.535000000000014 149.144 16.579000000000015 149.099 16.677000000000014 C 149.03454827506891 17.062434526178297 149.01375029938515 17.453906100742174 149.03699999999998 17.84400000000002 L 149.03699999999998 22.358000000000015 z" stroke-linecap="round" />
</g>
<g transform="matrix(0 0 0 0 213.37 24.69)"  >
<g style=""   >
</g>
</g>
</svg>